HIERARCHY
ROOT Hips
{
	OFFSET -211.153198 91.653587 -35.738949
	CHANNELS 6 Xposition Yposition Zposition Zrotation Yrotation Xrotation 
	JOINT LeftUpLeg
	{
		OFFSET 0.103455 1.857827 10.548507
		CHANNELS 3 Zrotation Yrotation Xrotation
		JOINT LeftLeg
		{
			OFFSET 43.500000 -0.000031 0.000008
			CHANNELS 3 Zrotation Yrotation Xrotation
			JOINT LeftFoot
			{
				OFFSET 42.372192 0.000011 -0.000014
				CHANNELS 3 Zrotation Yrotation Xrotation
				JOINT LeftToe
				{
					OFFSET 17.299997 -0.000002 0.000013
					CHANNELS 3 Zrotation Yrotation Xrotation
					End Site
					{
						OFFSET 0.000000 0.000000 0.000000
					}
				}
			}
		}
	}
	JOINT RightUpLeg
	{
		OFFSET 0.103457 1.857826 -10.548499
		CHANNELS 3 Zrotation Yrotation Xrotation
		JOINT RightLeg
		{
			OFFSET 43.500046 -0.000019 0.000015
			CHANNELS 3 Zrotation Yrotation Xrotation
			JOINT RightFoot
			{
				OFFSET 42.372261 -0.000004 0.000013
				CHANNELS 3 Zrotation Yrotation Xrotation
				JOINT RightToe
				{
					OFFSET 17.299992 -0.000006 0.000004
					CHANNELS 3 Zrotation Yrotation Xrotation
					End Site
					{
						OFFSET 0.000000 0.000000 0.000000
					}
				}
			}
		}
	}
	JOINT Spine
	{
		OFFSET 6.901968 -2.603730 -0.000002
		CHANNELS 3 Zrotation Yrotation Xrotation
		JOINT Spine1
		{
			OFFSET 12.588100 -0.000001 0.000009
			CHANNELS 3 Zrotation Yrotation Xrotation
			JOINT Spine2
			{
				OFFSET 12.343201 0.000005 -0.000005
				CHANNELS 3 Zrotation Yrotation Xrotation
				JOINT Neck
				{
					OFFSET 25.832893 -0.000008 -0.000006
					CHANNELS 3 Zrotation Yrotation Xrotation
					JOINT Head
					{
						OFFSET 11.766606 0.000005 0.000008
						CHANNELS 3 Zrotation Yrotation Xrotation
						End Site
						{
							OFFSET 0.000000 0.000000 0.000000
						}
					}
				}
				JOINT LeftShoulder
				{
					OFFSET 19.745903 -1.480373 6.000100
					CHANNELS 3 Zrotation Yrotation Xrotation
					JOINT LeftArm
					{
						OFFSET 11.284123 -0.000007 -0.000024
						CHANNELS 3 Zrotation Yrotation Xrotation
						JOINT LeftForeArm
						{
							OFFSET 33.000053 0.000004 0.000036
							CHANNELS 3 Zrotation Yrotation Xrotation
							JOINT LeftHand
							{
								OFFSET 25.200006 0.000021 -0.000003
								CHANNELS 3 Zrotation Yrotation Xrotation
								End Site
								{
									OFFSET 0.000000 0.000000 0.000000
								}
							}
						}
					}
				}
				JOINT RightShoulder
				{
					OFFSET 19.746101 -1.480381 -6.000079
					CHANNELS 3 Zrotation Yrotation Xrotation
					JOINT RightArm
					{
						OFFSET 11.284133 -0.000015 -0.000008
						CHANNELS 3 Zrotation Yrotation Xrotation
						JOINT RightForeArm
						{
							OFFSET 33.000099 0.000016 0.000006
							CHANNELS 3 Zrotation Yrotation Xrotation
							JOINT RightHand
							{
								OFFSET 25.199781 0.000142 0.000425
								CHANNELS 3 Zrotation Yrotation Xrotation
								End Site
								{
									OFFSET 0.000000 0.000000 0.000000
								}
							}
						}
					}
				}
			}
		}
	}
}
MOTION
Frames: 17
Frame Time: 0.033333
0.901132 89.932823 -459.429993 92.270733 1.939534 108.511202 171.218212 -6.866496 -174.040078 -25.375686 -3.424390 3.436247 79.677401 -3.585316 -4.900644 21.454548 0.003094 -0.000002 168.018596 19.380491 -165.683724 -31.728582 0.825749 9.067012 76.406280 -4.732344 6.496391 21.454557 -0.003106 -0.000018 8.860968 0.570979 -0.433953 7.705270 1.169460 -0.829023 7.387127 1.164565 -0.836065 0.603124 -13.275350 -12.348651 -22.716538 17.425448 -22.449090 -179.525580 -77.976773 -2.010309 -3.436300 59.795096 29.236710 -53.079012 -17.325603 2.008137 11.630974 -1.686619 27.395139 -170.468367 70.686598 11.181709 -11.565310 -63.265044 -4.081643 -62.088086 17.315617 -2.369116 4.066209 -0.832239 -34.161598 
0.126701 89.815063 -458.445099 92.033917 1.957138 106.780514 172.233260 -8.077497 -173.954837 -24.957240 -4.078748 2.628603 80.459451 -3.147294 -5.669702 21.454553 0.003095 0.000001 169.061744 18.736210 -164.555240 -27.342243 1.756372 8.260232 75.455470 -4.388386 5.593203 21.454560 -0.003102 -0.000016 8.778381 0.544247 -0.557532 7.538972 1.123530 -1.078527 7.220873 1.117128 -1.085278 0.538552 -12.714880 -11.348833 -22.601221 16.926148 -21.100468 178.687516 -78.915446 -0.208380 -2.751569 59.190460 30.111736 -54.129099 -17.164757 2.033527 11.359166 -0.945172 32.155728 -169.038876 70.883662 12.654775 -10.277007 -62.822625 -6.834975 -58.582287 17.595476 -2.254777 3.380899 -1.323890 -36.820392 
-0.717161 89.470520 -457.594910 91.722487 2.681392 104.817497 172.906485 -9.663203 -174.652103 -26.562192 -4.711208 2.389972 81.603829 -3.063875 -6.359051 21.454553 0.003089 -0.000001 169.424468 17.294797 -163.911617 -26.775366 1.000041 7.483641 74.976667 -3.616052 6.211509 21.454558 -0.003110 -0.000020 8.938794 0.486624 -0.512837 7.860688 1.006814 -0.991522 7.542593 1.000959 -0.997573 0.640887 -12.163372 -10.806286 -23.127162 16.756780 -20.470275 177.744663 -79.467612 0.739047 -3.508733 57.726621 29.627837 -55.583345 -17.059441 2.077480 10.231215 -0.483961 38.236540 -170.110492 70.680799 11.550586 -9.397009 -61.338548 -10.237082 -54.459113 17.760633 -2.116290 2.710826 1.246110 -34.340043 
-1.598813 88.607521 -456.883514 91.160349 3.753207 102.920603 171.981254 -11.207196 -175.600175 -31.792704 -4.502964 2.582906 83.451606 -3.322034 -7.390305 21.454551 0.003086 -0.000001 168.854338 16.097398 -166.281133 -29.366610 0.960496 7.223346 76.894399 -2.462879 10.131053 21.454560 -0.003107 -0.000016 9.300427 0.497474 -0.327244 8.585602 1.017757 -0.616720 8.267474 1.014146 -0.622841 -0.779834 -11.872097 -10.253207 -22.327521 17.106917 -19.974091 177.174916 -79.572319 1.315688 -5.446908 55.776541 28.174665 -56.833318 -17.344919 2.141602 8.573721 -0.516505 42.695181 -170.785520 70.404046 10.854192 -10.703022 -59.751328 -12.689632 -48.554220 17.828534 -1.921886 2.707394 4.760955 -27.009969 
-2.432739 87.557053 -456.318115 90.026060 4.658328 101.348095 169.099802 -13.020209 -177.491946 -39.697941 -2.892216 3.628375 83.725647 -4.285571 -8.301117 21.454550 0.003095 -0.000000 167.339648 15.651498 -168.095682 -33.713397 2.947477 6.671894 79.015262 -2.129545 10.675528 21.454557 -0.003113 -0.000020 9.673770 0.693443 -0.148374 9.333908 1.396510 -0.240355 9.015718 1.395176 -0.248789 -1.791458 -11.212410 -9.691166 -22.844893 16.752552 -19.313297 174.791330 -79.140555 3.747792 -6.665019 54.195249 25.812714 -57.378527 -17.682825 2.184360 7.020370 -1.154801 45.257281 -172.117666 70.579575 9.481502 -13.351367 -58.407775 -12.294089 -41.122660 16.359220 -1.604473 4.266672 7.356407 -16.342081 
-3.336814 86.539001 -455.845795 88.400208 4.890260 100.590102 163.847673 -15.876095 -177.664408 -48.988251 -2.635740 4.702667 80.002655 -5.223250 -7.685001 21.454553 0.003099 -0.000000 165.813101 14.929513 -167.486238 -37.405702 4.410961 5.558914 81.276355 -1.782543 9.653577 21.454560 -0.003101 -0.000018 9.881080 1.059151 -0.103154 9.749898 2.123127 -0.116696 9.431568 2.122522 -0.129509 -2.741011 -11.060170 -9.021817 -23.091113 16.660607 -18.688827 173.400321 -78.420694 5.181101 -7.960912 53.769271 22.728259 -56.068343 -18.439648 2.188396 5.906170 -2.191535 44.617821 -173.986023 71.619834 7.563994 -15.880145 -58.099365 -10.124791 -33.652141 14.692300 -1.311942 6.000554 8.495166 -4.200159 
-3.940136 86.024277 -455.334900 87.101380 4.698004 100.101504 158.308881 -18.535805 -177.732696 -57.016046 -2.507137 6.023507 74.071776 -6.636070 -7.571388 21.454545 0.003087 -0.000003 164.953016 13.633882 -166.381687 -38.960762 4.076786 4.848227 82.462281 -1.413130 9.367075 21.454558 -0.003106 -0.000017 9.954156 1.302894 -0.049154 9.898206 2.605074 0.013378 9.579742 2.605251 -0.002362 -3.294633 -10.696497 -8.579214 -23.130716 16.553679 -18.169951 170.974607 -78.721216 7.639234 -9.445518 55.301149 18.410022 -53.785551 -19.076672 2.150700 6.164050 -3.082441 42.699314 -175.725522 72.128403 5.779517 -16.040301 -58.024212 -7.543699 -29.728719 13.932196 -1.182124 10.591054 6.697536 0.717912 
-4.301531 86.224777 -454.549286 87.163930 4.894116 99.333196 155.347052 -19.859000 -179.145726 -62.155801 -1.804319 6.424358 70.282817 -8.023411 -9.713595 21.454553 0.003091 -0.000000 165.656498 13.179903 -166.297116 -38.548392 3.878197 4.506351 82.678682 -1.250622 9.033752 21.454558 -0.003106 -0.000018 10.141925 1.261154 0.014282 10.275003 2.515969 0.140573 9.956582 2.516903 0.125376 -3.772919 -10.509656 -8.313973 -23.299655 16.563065 -17.935686 169.482306 -78.649656 9.158625 -11.366167 56.780250 13.478647 -51.523850 -19.313921 2.089063 7.469194 -3.640225 40.153514 -175.778019 72.363593 5.728086 -15.231194 -57.710276 -5.897014 -28.095763 13.701423 -1.136960 13.843463 4.841403 -0.837358 
-4.339991 86.661583 -453.647095 87.839231 4.957254 98.196352 154.439088 -19.628010 179.611955 -63.552472 -1.771898 5.492271 72.003089 -6.766636 -8.543941 21.454550 0.003097 0.000000 166.683609 13.682397 -167.435940 -37.402768 4.769113 4.374777 82.518131 -1.290651 8.473533 21.454560 -0.003111 -0.000016 10.241250 1.058330 0.067501 10.473533 2.106100 0.230589 10.155209 2.107582 0.217875 -3.631484 -10.374507 -8.155548 -23.449896 16.270786 -17.634712 170.184600 -78.144290 8.460794 -12.938639 57.572710 10.430923 -49.045522 -19.568512 2.024169 8.370954 -4.204455 37.632666 -174.781918 72.373490 6.751890 -13.415196 -56.738245 -7.185283 -27.605509 13.406765 -1.109337 14.007214 4.176266 -5.073716 
-4.198689 87.312248 -452.723907 88.503932 4.462133 96.841742 154.628161 -19.093603 178.152152 -60.729684 -2.217848 3.930829 75.483706 -5.264905 -8.427361 21.454553 0.003107 0.000000 167.408770 13.875592 -167.826108 -35.442186 4.442741 4.047454 81.806419 -1.034742 8.335795 21.454562 -0.003096 -0.000019 10.118021 0.836282 0.094273 10.226162 1.660880 0.262115 9.907920 1.662564 0.252082 -3.415416 -9.963240 -7.668340 -22.889844 15.908615 -16.772486 171.704303 -77.622641 6.930172 -13.727962 58.098252 9.837655 -46.149297 -20.031044 1.963514 8.775279 -4.478541 34.967164 -173.557129 72.554477 8.011890 -10.753493 -55.756658 -11.004175 -28.033084 13.497021 -1.122720 12.204890 4.216046 -9.599897 
-3.921116 87.947411 -451.757996 89.031803 3.927962 95.388366 156.244457 -18.189103 176.548984 -54.184796 -2.669505 1.489404 76.639886 -3.495029 -8.819232 21.454553 0.003086 -0.000001 168.084371 13.687804 -168.775095 -33.241547 3.772757 4.085285 80.924095 -0.903418 8.699454 21.454558 -0.003100 -0.000016 9.942035 0.655619 0.089122 9.873204 1.301153 0.233876 9.555016 1.302689 0.226022 -3.412382 -9.353347 -7.061131 -21.778244 15.085181 -15.478629 173.127633 -77.287149 5.490109 -13.803238 58.599540 10.545197 -43.237970 -20.199147 1.887592 8.863855 -3.797498 33.388229 -172.331110 72.893022 9.273414 -8.007731 -54.668793 -15.287681 -29.357038 13.670450 -1.158228 10.086331 4.258206 -12.168123 
-3.503705 88.360046 -450.740112 89.279588 3.416138 94.090350 158.717778 -16.839208 175.189680 -45.028015 -2.692857 0.434597 76.686707 -2.842751 -9.261436 21.454550 0.003085 0.000000 168.615091 13.614591 -169.443169 -31.607684 3.319794 3.936953 80.350209 -0.676391 9.021079 21.454557 -0.003112 -0.000018 9.728989 0.583276 0.035214 9.446236 1.161663 0.117903 9.128061 1.162490 0.110894 -3.385468 -8.608056 -6.418983 -20.983717 14.335409 -14.222738 173.105230 -77.181185 5.515917 -12.898175 59.377006 11.866448 -41.124193 -19.897360 1.807909 8.980666 -2.809240 32.942337 -169.828446 73.371326 11.844078 -5.943235 -53.514600 -18.352723 -31.386536 13.765426 -1.204145 8.480266 3.389644 -13.043733 
-2.991161 88.506691 -449.586792 89.210398 3.284476 92.867944 162.267413 -15.333998 175.542337 -34.337468 -3.508329 1.030919 76.093170 -3.242645 -9.076021 21.454551 0.003090 -0.000002 169.273275 13.753597 -170.225376 -30.825620 3.616936 3.695916 80.258807 -0.496971 9.093488 21.454557 -0.003098 -0.000017 9.568953 0.614920 -0.066094 9.125132 1.233045 -0.083513 8.806952 1.232660 -0.090963 -3.005918 -7.174070 -5.763568 -20.645970 13.023465 -12.645119 172.200694 -77.298651 6.434065 -11.458498 60.534812 13.454838 -39.665313 -19.581971 1.747749 9.305421 -1.875283 32.880353 -168.445019 73.526706 13.263472 -4.504829 -51.766321 -20.006326 -33.907723 13.952549 -1.269795 7.926079 1.617399 -12.259847 
-2.594085 88.935593 -448.581787 89.902140 3.651055 91.784021 165.374043 -13.522994 176.518111 -29.300036 -3.828236 -0.438938 73.632779 -1.929413 -7.574962 21.454553 0.003095 -0.000001 170.473913 14.370196 -171.101047 -29.689794 3.626788 3.609411 79.809886 -0.387030 9.210552 21.454558 -0.003106 -0.000019 9.537232 0.534285 -0.286806 9.059507 1.089291 -0.530907 8.741361 1.086208 -0.537488 -2.453232 -5.544644 -5.157087 -20.424368 11.395942 -10.978184 172.036018 -77.500790 6.596121 -10.797247 61.863619 14.931072 -38.558836 -19.476332 1.711857 9.244234 -1.340360 33.386200 -167.438918 73.743742 14.295099 -4.375546 -50.143349 -19.525964 -36.474504 14.141547 -1.341169 8.030457 -0.740524 -12.222820 
-1.960536 88.749893 -447.672089 89.963318 4.575359 90.626495 166.705247 -12.442897 176.771648 -30.542960 -2.581469 -1.492081 75.548046 -1.374318 -8.670074 21.454553 0.003099 0.000001 170.953843 14.636803 -171.735859 -30.818821 3.100041 3.226983 80.088442 -0.022364 9.646387 21.454560 -0.003117 -0.000018 9.684891 0.503734 -0.495497 9.352990 1.045805 -0.948685 9.034878 1.040191 -0.954975 -2.063154 -4.078636 -4.474742 -20.664227 10.363526 -9.584025 174.063724 -77.000862 4.543832 -11.397972 61.896008 15.779369 -37.122153 -19.138272 1.653478 8.727729 -1.582444 34.211263 -168.212219 72.859329 13.503384 -5.425247 -48.059960 -17.031516 -38.315384 14.488742 -1.408937 7.380312 -1.807258 -12.393480 
-1.301781 88.818283 -446.750214 90.673650 5.494748 89.678492 168.612522 -11.698189 175.384655 -30.487468 -2.715373 -1.398754 75.553135 -1.404086 -8.557230 21.454553 0.003106 -0.000001 171.936803 15.528503 -171.373503 -31.033193 2.155545 2.535733 80.026260 0.592096 10.021002 21.454563 -0.003107 -0.000020 9.828483 0.229741 -0.592386 9.641631 0.507972 -1.163573 9.323586 0.501069 -1.166601 -1.418295 -3.021828 -4.224503 -21.042042 10.182235 -9.072743 174.798392 -76.935510 3.796347 -13.420154 61.665427 15.497055 -35.058804 -18.782329 1.580760 8.148144 -2.399473 34.243211 -168.650567 71.372157 13.054520 -6.068393 -47.744559 -13.621573 -39.657379 15.771166 -1.526920 6.945697 -0.197680 -13.395147 
-0.720658 89.029716 -445.925293 90.722677 5.278730 88.980009 169.678032 -12.286292 174.699218 -29.778863 -4.563305 -1.267338 75.784767 -1.126139 -7.460323 21.454551 0.003084 -0.000001 172.526180 15.962999 -170.918025 -29.973773 2.032296 1.977448 79.349552 1.058848 10.035440 21.454558 -0.003101 -0.000016 9.574597 0.151742 -0.581648 9.134651 0.348859 -1.149497 8.816615 0.342050 -1.151572 -0.089757 -2.664968 -4.067495 -21.010917 9.890041 -8.696157 176.221927 -77.111586 2.340576 -14.571860 62.071065 15.220988 -33.761803 -18.522836 1.534355 8.242029 -3.222854 34.861467 -168.496518 70.562657 13.214128 -5.224526 -49.401689 -9.982254 -40.855736 16.977506 -1.637570 6.163457 3.090733 -14.033113 
